<?xml version="1.0" standalone="no"?>
<!DOCTYPE svg PUBLIC "-//W3C//DTD SVG 1.1//EN" "http://www.w3.org/Graphics/SVG/1.1/DTD/svg11.dtd" >
<svg xmlns="http://www.w3.org/2000/svg">
<metadata></metadata>
<defs>
<font id="bignoodletitlingoblique" horiz-adv-x="580" >
<font-face units-per-em="2048" ascent="1638" descent="-410" />
<missing-glyph horiz-adv-x="231" />
<glyph horiz-adv-x="0" />
<glyph unicode="&#xd;" horiz-adv-x="418" />
<glyph unicode=" "  horiz-adv-x="231" />
<glyph unicode="&#x09;" horiz-adv-x="231" />
<glyph unicode="&#xa0;" horiz-adv-x="231" />
<glyph unicode="!" horiz-adv-x="281" d="M42 0l10 180h147l-9 -180h-148zM71 286l20 772h154l-58 -772h-116z" />
<glyph unicode="&#x22;" horiz-adv-x="396" d="M31 619l4 439h138l-39 -439h-103zM239 619l4 439h139l-40 -439h-103z" />
<glyph unicode="#" horiz-adv-x="671" d="M-13 259l14 101h116l60 346h-114l15 100h115l43 252h99l-45 -252h146l45 252h99l-45 -252h108l-17 -100h-107l-60 -346h105l-14 -101h-109l-44 -259h-97l42 259h-146l-43 -259h-98l44 259h-112zM214 360h146l62 346h-146z" />
<glyph unicode="$" horiz-adv-x="540" d="M32 194l3 54h139l-4 -58q-3 -62 58 -62h25q55 0 58 62l10 176q2 29 -9.5 39.5t-35.5 26.5l-127 76q-42 23 -61 39t-26 42t-6 67l12 222q8 178 170 180l5 113h99l-6 -113q159 -4 151 -180l-6 -104h-139l4 93q5 63 -56 63h-21q-59 0 -64 -63l-9 -180q-2 -30 9.5 -40 t36.5 -26l127 -72q42 -26 59 -40t26.5 -33.5t7.5 -75.5l-12 -221q-9 -175 -168 -179l-6 -112h-99l6 112q-161 3 -151 194z" />
<glyph unicode="%" horiz-adv-x="894" d="M60 603l18 345q6 111 121 110h46q115 0 109 -110l-18 -345q-6 -111 -121 -111h-45q-115 0 -110 111zM155 613q-2 -41 31 -41h21q33 0 35 41l17 323q2 42 -32 42h-20q-33 0 -34 -42zM211 0l383 1058h89l-383 -1058h-89zM540 111l17 345q6 111 121 110h46q116 0 109 -110 l-17 -345q-6 -111 -121 -111h-46q-115 0 -109 111zM634 121q-1 -41 31 -41h20q34 0 36 41l16 323q3 41 -31 41h-21q-32 0 -35 -41z" />
<glyph unicode="&#x26;" horiz-adv-x="539" d="M38 180l14 240q3 98 116 127q-92 23 -87 114l12 217q9 181 176 180h54q167 0 158 -180l-4 -93h-132l4 94q3 62 -60 62h-15q-49 -9 -52 -62l-11 -209q-3 -77 60 -77h257l-6 -105h-62l-16 -308q-9 -180 -177 -180h-70q-167 0 -159 180zM168 180q-3 -62 60 -62h27 q55 0 57 62l17 308h-62q-83 0 -87 -77z" />
<glyph unicode="'" horiz-adv-x="172" d="M24 619l4 439h137l-40 -439h-101z" />
<glyph unicode="(" horiz-adv-x="295" d="M45 -90l52 968q9 181 167 180h66l-5 -111h-43q-61 0 -65 -76l-49 -955q-5 -75 56 -75h43l-6 -111h-67q-157 0 -149 180z" />
<glyph unicode=")" horiz-adv-x="295" d="M-34 -270h65q158 0 166 180l52 968q9 181 -149 180h-66l-6 -111h43q60 0 56 -76l-49 -955q-4 -75 -65 -75h-41z" />
<glyph unicode="*" horiz-adv-x="498" d="M38 947l90 115l94 -107l13 9l20 152l133 -45l-80 -133l6 -11l148 36l-2 -130l-142 21l-6 -11l82 -116l-123 -70l-32 151l-14 4l-110 -111l-75 107l133 63l-3 14z" />
<glyph unicode="+" horiz-adv-x="549" d="M53 442l7 124h160l8 171h128l-10 -171h149l-7 -124h-149l-9 -165h-126l8 165h-159z" />
<glyph unicode="," horiz-adv-x="239" d="M34 -176l75 176h-68l11 183h155l-11 -183l-78 -176h-84z" />
<glyph unicode="-" horiz-adv-x="353" d="M13 414l8 118h318l-7 -118h-319z" />
<glyph unicode="." horiz-adv-x="232" d="M37 0l11 180h146l-10 -180h-147z" />
<glyph unicode="/" horiz-adv-x="414" d="M-31 -73l377 1206h99l-380 -1206h-96z" />
<glyph unicode="0" horiz-adv-x="558" d="M45 181l38 697q8 181 175 180h96q167 0 158 -180l-38 -697q-8 -181 -174 -181h-96q-167 0 -159 181zM184 190q-3 -62 59 -62h36q54 0 57 62l37 678q3 62 -59 62h-35q-55 0 -58 -62z" />
<glyph unicode="1" horiz-adv-x="349" d="M41 922q55 20 95 57t63 79h13l90 -49l-53 -1009h-137l44 851l-88 -27z" />
<glyph unicode="2" horiz-adv-x="532" d="M49 0l16 326q1 27 6 44.5t18 33t42 43.5l146 137q17 16 27 28t13.5 20t5.5 16.5t3 23.5l10 196q3 62 -56 62h-9q-59 0 -61 -62l-6 -108h-139l6 118q8 181 174 180h72q166 0 157 -180l-12 -254q-2 -30 -11.5 -52t-43.5 -54l-161 -151q-31 -28 -35 -38.5t-5.5 -20.5 t-1.5 -28l-10 -153h234l-6 -127h-373z" />
<glyph unicode="3" horiz-adv-x="537" d="M35 180l5 68h139l-5 -58q-3 -62 51 -62h33q62 0 65 62l12 218q4 69 -77 70h-37l6 119h19q82 0 84 70l11 200q4 62 -58 62h-19q-54 0 -59 -62l-4 -107h-139l6 118q8 181 175 180h82q165 0 156 -180l-12 -211q-5 -100 -96 -123q106 -29 100 -134l-11 -230 q-9 -180 -176 -180h-93q-166 0 -158 180z" />
<glyph unicode="4" horiz-adv-x="529" d="M12 367l305 691h139l-36 -691h80l-6 -119h-80l-13 -248h-135l13 248h-244zM159 367h130l29 410h-7z" />
<glyph unicode="5" horiz-adv-x="524" d="M38 180l4 68h139l-4 -58q-3 -62 51 -62h17q62 0 65 62l13 242q5 69 -53 69h-210l29 557h391l-7 -131h-261l-16 -298h109q167 0 157 -187l-13 -255q-9 -187 -176 -187h-77q-166 0 -158 180z" />
<glyph unicode="6" horiz-adv-x="555" d="M45 179l38 699q8 181 168 180h98q159 0 151 -180l-6 -118h-138l4 94q4 76 -58 76h-23q-55 0 -58 -62l-17 -321l90 59h41q159 0 150 -181l-13 -246q-9 -179 -168 -179h-108q-159 0 -151 179zM186 192q-5 -64 56 -64h27q61 0 66 64l10 209q4 76 -58 77h-86z" />
<glyph unicode="7" horiz-adv-x="437" d="M35 927l6 131h363l35 -76l-235 -982h-138l228 927h-259z" />
<glyph unicode="8" horiz-adv-x="552" d="M38 180l12 233q5 97 116 127q-97 22 -93 128l13 210q8 181 175 180h84q166 0 158 -180l-12 -211q-4 -106 -97 -128q100 -30 94 -128l-11 -231q-9 -180 -176 -180h-105q-166 0 -158 180zM179 205q-5 -77 57 -77h37q62 0 66 77l10 197q5 75 -75 76q-81 -1 -85 -74zM214 677 q-4 -77 57 -77h16q62 11 67 75l9 177q4 77 -58 77h-16q-62 0 -67 -77z" />
<glyph unicode="9" horiz-adv-x="552" d="M55 189l4 59h138l-3 -43q-4 -76 58 -77h21q55 0 57 62l15 257l-92 -59h-31q-166 0 -156 189l17 296q8 185 175 185h90q166 0 157 -185l-36 -684q-9 -189 -175 -189h-83q-165 0 -156 189zM207 593q-5 -77 57 -77h84l18 351q4 63 -64 63h-16q-62 0 -66 -63z" />
<glyph unicode=":" horiz-adv-x="229" d="M19 0l9 180h148l-10 -180h-147zM50 580l9 180h148l-10 -180h-147z" />
<glyph unicode=";" horiz-adv-x="231" d="M35 -176l76 176h-69l11 183h155l-11 -183l-77 -176h-85zM55 580l8 180h148l-9 -180h-147z" />
<glyph unicode="&#x3c;" horiz-adv-x="444" d="M13 410l343 -339l8 172l-219 213l242 214l8 175l-377 -342z" />
<glyph unicode="=" horiz-adv-x="533" d="M48 328l5 121h419l-6 -121h-418zM60 566l6 121h419l-5 -121h-420z" />
<glyph unicode="&#x3e;" horiz-adv-x="444" d="M49 68l377 342l5 94l-342 338l-9 -172l220 -213l-242 -214z" />
<glyph unicode="?" horiz-adv-x="542" d="M49 789l4 89q9 181 175 180h118q165 0 157 -180l-12 -216q-1 -32 -7 -50t-18 -29.5t-30 -25.5l-100 -76q-19 -13 -24 -26t-7 -42l-5 -127h-139l9 178q1 33 7.5 50.5t15 28t29.5 27.5l104 74q18 15 23 27.5t7 42.5l7 151q4 65 -56 65h-55q-58 0 -62 -65l-3 -76h-138z M145 0l8 180h148l-9 -180h-147z" />
<glyph unicode="@" horiz-adv-x="806" d="M44 0l42 786q5 137 80.5 206t187.5 66h130q155 0 213 -67t52 -172l-35 -663h-269l14 257h-113l-13 -257h-103l33 605q6 134 128 134h72q124 0 118 -134l-28 -518h71l29 568q4 80 -37 118t-132 38h-130q-81 -1 -125.5 -47.5t-48.5 -127.5l-37 -699h568l-5 -93h-662z M352 509h112l14 246q2 46 -43 46h-24q-44 0 -45 -46z" />
<glyph unicode="A" horiz-adv-x="550" d="M30 0l45 878q9 180 174 180h2h103q158 0 158 -162v-18l-46 -878h-138l18 388h-159l-19 -388h-138zM194 516h160l19 352v6q0 56 -58 56h-38q-60 0 -63 -62z" />
<glyph unicode="B" horiz-adv-x="550" d="M37 0l54 1058h238q175 0 174 -172v-19l-11 -203q-4 -92 -104 -112v-8q107 -31 107 -113v-8l-14 -265q-7 -158 -166 -158h-278zM181 128h105q55 0 57 46l13 234v7q0 68 -79 69h-76zM207 612h64q80 0 85 76l8 166v11q0 65 -57 65h-83z" />
<glyph unicode="C" horiz-adv-x="521" d="M38 180l37 699q9 179 174 179h2h88q158 0 158 -163v-16l-6 -119h-139l7 108q2 62 -59 62h-29q-54 0 -57 -62l-37 -678v-6q0 -56 51 -56h36q55 0 57 62l5 58h138l-4 -68q-9 -180 -176 -180h-88q-158 0 -158 164v16z" />
<glyph unicode="D" horiz-adv-x="558" d="M37 0l54 1058h242q185 0 185 -184v-19l-37 -702q-7 -153 -174 -153h-270zM181 128h105q55 0 57 48l36 678v9q0 67 -58 67h-97z" />
<glyph unicode="E" horiz-adv-x="443" d="M37 0l54 1058h345l-5 -128h-207l-17 -321h183l-7 -128h-182l-20 -353h207l-6 -128h-345z" />
<glyph unicode="F" horiz-adv-x="437" d="M37 0l54 1058h345l-5 -128h-207l-17 -321h183l-7 -128h-182l-25 -481h-139z" />
<glyph unicode="G" horiz-adv-x="536" d="M38 179l37 699q9 180 168 180h2h94q169 0 169 -168v-16l-7 -114h-138l4 94v11q0 65 -55 65h-35q-60 0 -65 -76l-33 -649v-11q0 -65 56 -66h94l13 260h-72l7 128h211l-26 -516h-272q-152 0 -152 162v17z" />
<glyph unicode="H" horiz-adv-x="577" d="M37 0l54 1058h139l-23 -449h170l24 449h139l-55 -1058h-139l26 481h-171l-25 -481h-139z" />
<glyph unicode="I" horiz-adv-x="267" d="M37 0l54 1058h139l-54 -1058h-139z" />
<glyph unicode="J" horiz-adv-x="371" d="M-12 0l6 128h90q62 0 66 77l44 853h139l-46 -879q-8 -179 -169 -179h-130z" />
<glyph unicode="K" horiz-adv-x="537" d="M37 0l54 1058h139l-54 -1058h-139zM210 518v8l172 532h127l-173 -526l159 -532h-138z" />
<glyph unicode="L" horiz-adv-x="409" d="M37 0l54 1058h139l-49 -930h192l-6 -128h-330z" />
<glyph unicode="M" horiz-adv-x="692" d="M37 0l54 1058h154l96 -622l160 622h153l-54 -1058h-138l50 693l-130 -501h-106l-80 501l-20 -693h-139z" />
<glyph unicode="N" horiz-adv-x="555" d="M37 0l54 1058h139l122 -511l27 511h139l-55 -1058h-138l10 211l-124 482l-35 -693h-139z" />
<glyph unicode="O" d="M38 180l37 698q9 180 174 180h2h132q158 0 158 -164v-16l-37 -698q-9 -180 -176 -180h-131q-159 0 -159 164v16zM177 190v-6q0 -56 59 -56h71q56 0 59 62l36 678v6q0 56 -59 56h-66q-60 0 -63 -62z" />
<glyph unicode="P" horiz-adv-x="529" d="M37 0l54 1058h252q160 0 160 -164v-16l-16 -315q-10 -180 -177 -180h-116l-18 -383h-139zM202 512h88q55 0 58 62l16 294v6q0 56 -59 56h-81z" />
<glyph unicode="Q" horiz-adv-x="601" d="M38 179l37 699q9 180 172 180h2h134q157 0 157 -164v-16l-40 -750h80l-6 -128h-378q-158 0 -158 163v16zM177 190v-6q0 -56 59 -56h125l40 740v6q0 56 -59 56h-65q-60 0 -63 -62z" />
<glyph unicode="R" horiz-adv-x="545" d="M37 0l54 1058h272q150 0 150 -161v-19l-13 -262q-8 -139 -93 -175l75 -441h-131l-69 428h-85l-21 -428h-139zM204 549h91q62 0 66 76l12 229v9q0 67 -58 67h-91z" />
<glyph unicode="S" horiz-adv-x="518" d="M32 194l3 54h139l-4 -58q0 -3 -1 -6q0 -56 59 -56h25q55 0 58 62l10 180q2 30 -9 40t-36 26l-127 76q-42 24 -61 39.5t-26 41.5q-6 23 -6 58v10l12 217q8 180 173 180h2h86q158 0 158 -164v-16l-6 -104h-139l4 93v9q0 54 -56 54h-21q-59 0 -64 -63l-9 -175 q-2 -30 9.5 -40t36.5 -27l127 -72q42 -25 59 -39q16 -14 26 -34q8 -17 8 -58v-18l-12 -225q-9 -179 -177 -179h-84q-158 0 -158 173q0 10 1 21z" />
<glyph unicode="T" horiz-adv-x="433" d="M35 930l6 128h404l-6 -128h-132l-49 -930h-138l48 930h-133z" />
<glyph unicode="U" d="M48 202l43 856h139l-44 -861q0 -5 -1 -10q0 -59 57 -59h58q56 0 60 69l44 861h139l-45 -857q-10 -201 -178 -201h-116q-157 0 -157 178q0 12 1 24z" />
<glyph unicode="V" horiz-adv-x="527" d="M40 1058h139l70 -807l153 807h139l-223 -1058h-165z" />
<glyph unicode="W" horiz-adv-x="803" d="M40 1058h137l58 -792l139 792h108l58 -792l140 792h137l-208 -1058h-150l-55 613l-115 -613h-150z" />
<glyph unicode="X" horiz-adv-x="481" d="M-6 0l158 535l-96 523h136l57 -390h3l108 390h128l-150 -523l93 -535h-134l-58 402h-3l-115 -402h-127z" />
<glyph unicode="Y" horiz-adv-x="505" d="M41 1058h138l80 -460h5l118 460h137l-202 -668l-20 -390h-139l21 390z" />
<glyph unicode="Z" horiz-adv-x="422" d="M-10 50l263 879h-195l5 129h314l27 -60l-252 -870h235l-7 -128h-381z" />
<glyph unicode="[" horiz-adv-x="294" d="M37 -270l69 1328h223l-6 -104h-103l-58 -1119h104l-7 -105h-222z" />
<glyph unicode="\" horiz-adv-x="414" d="M31 1133h97l254 -1206h-98z" />
<glyph unicode="]" horiz-adv-x="294" d="M-34 -270l6 105h101l58 1119h-103l6 104h222l-69 -1328h-221z" />
<glyph unicode="_" horiz-adv-x="396" d="M-1 -104l2 104h397l-4 -104h-395z" />
<glyph unicode="`" horiz-adv-x="219" d="M17 1003h128l56 -174h-99z" />
<glyph unicode="a" horiz-adv-x="550" d="M30 0l45 878q9 180 174 180h2h103q158 0 158 -162v-18l-46 -878h-138l18 388h-159l-19 -388h-138zM194 516h160l19 352v6q0 56 -58 56h-38q-60 0 -63 -62z" />
<glyph unicode="b" horiz-adv-x="550" d="M37 0l54 1058h238q175 0 174 -172v-19l-11 -203q-4 -92 -104 -112v-8q107 -31 107 -113v-8l-14 -265q-7 -158 -166 -158h-278zM181 128h105q55 0 57 46l13 234v7q0 68 -79 69h-76zM207 612h64q80 0 85 76l8 166v11q0 65 -57 65h-83z" />
<glyph unicode="c" horiz-adv-x="523" d="M38 180l37 699q9 179 174 179h2h88q158 0 158 -163v-16l-6 -119h-139l7 108q2 62 -59 62h-29q-54 0 -57 -62l-37 -678v-6q0 -56 51 -56h36q55 0 57 62l5 58h138l-4 -68q-9 -180 -176 -180h-88q-158 0 -158 164v16z" />
<glyph unicode="d" horiz-adv-x="558" d="M37 0l54 1058h242q185 0 185 -184v-19l-37 -702q-7 -153 -174 -153h-270zM181 128h105q55 0 57 48l36 678v9q0 67 -58 67h-97z" />
<glyph unicode="e" horiz-adv-x="443" d="M37 0l54 1058h345l-5 -128h-207l-17 -321h183l-7 -128h-182l-20 -353h207l-6 -128h-345z" />
<glyph unicode="f" horiz-adv-x="437" d="M37 0l54 1058h345l-5 -128h-207l-17 -321h183l-7 -128h-182l-25 -481h-139z" />
<glyph unicode="g" horiz-adv-x="537" d="M38 179l37 699q9 180 168 180h2h94q169 0 169 -168v-16l-7 -114h-138l4 94v11q0 65 -55 65h-35q-60 0 -65 -76l-33 -649v-11q0 -65 56 -66h94l13 260h-72l7 128h211l-26 -516h-272q-152 0 -152 162v17z" />
<glyph unicode="h" horiz-adv-x="577" d="M37 0l54 1058h139l-23 -449h170l24 449h139l-55 -1058h-139l26 481h-171l-25 -481h-139z" />
<glyph unicode="i" horiz-adv-x="267" d="M37 0l54 1058h139l-54 -1058h-139z" />
<glyph unicode="j" horiz-adv-x="371" d="M-12 0l6 128h90q62 0 66 77l44 853h139l-46 -879q-8 -179 -169 -179h-130z" />
<glyph unicode="k" horiz-adv-x="537" d="M37 0l54 1058h139l-54 -1058h-139zM210 518v8l172 532h127l-173 -526l159 -532h-138z" />
<glyph unicode="l" horiz-adv-x="408" d="M37 0l54 1058h139l-49 -930h192l-6 -128h-330z" />
<glyph unicode="m" horiz-adv-x="692" d="M37 0l54 1058h154l96 -622l160 622h153l-54 -1058h-138l50 693l-130 -501h-106l-80 501l-20 -693h-139z" />
<glyph unicode="n" horiz-adv-x="555" d="M37 0l54 1058h139l122 -511l27 511h139l-55 -1058h-138l10 211l-124 482l-35 -693h-139z" />
<glyph unicode="o" d="M38 180l37 698q9 180 174 180h2h132q158 0 158 -164v-16l-37 -698q-9 -180 -176 -180h-131q-159 0 -159 164v16zM177 190v-6q0 -56 59 -56h71q56 0 59 62l36 678v6q0 56 -59 56h-66q-60 0 -63 -62z" />
<glyph unicode="p" horiz-adv-x="530" d="M37 0l54 1058h252q160 0 160 -164v-16l-16 -315q-10 -180 -177 -180h-116l-18 -383h-139zM202 512h88q55 0 58 62l16 294v6q0 56 -59 56h-81z" />
<glyph unicode="q" horiz-adv-x="602" d="M38 179l37 699q9 180 172 180h2h134q157 0 157 -164v-16l-40 -750h80l-6 -128h-378q-158 0 -158 163v16zM177 190v-6q0 -56 59 -56h125l40 740v6q0 56 -59 56h-65q-60 0 -63 -62z" />
<glyph unicode="r" horiz-adv-x="545" d="M37 0l54 1058h272q150 0 150 -161v-19l-13 -262q-8 -139 -93 -175l75 -441h-131l-69 428h-85l-21 -428h-139zM204 549h91q62 0 66 76l12 229v9q0 67 -58 67h-91z" />
<glyph unicode="s" horiz-adv-x="519" d="M32 194l3 54h139l-4 -58q0 -3 -1 -6q0 -56 59 -56h25q55 0 58 62l10 180q2 30 -9 40t-36 26l-127 76q-42 24 -61 39.5t-26 41.5q-6 23 -6 58v10l12 217q8 180 173 180h2h86q158 0 158 -164v-16l-6 -104h-139l4 93v9q0 54 -56 54h-21q-59 0 -64 -63l-9 -175 q-2 -30 9.5 -40t36.5 -27l127 -72q42 -25 59 -39q16 -14 26 -34q8 -17 8 -58v-18l-12 -225q-9 -179 -177 -179h-84q-158 0 -158 173q0 10 1 21z" />
<glyph unicode="t" horiz-adv-x="433" d="M35 930l6 128h404l-6 -128h-132l-49 -930h-138l48 930h-133z" />
<glyph unicode="u" d="M48 202l43 856h139l-44 -861q0 -5 -1 -10q0 -59 57 -59h58q56 0 60 69l44 861h139l-45 -857q-10 -201 -178 -201h-116q-157 0 -157 178q0 12 1 24z" />
<glyph unicode="v" horiz-adv-x="529" d="M40 1058h139l70 -807l153 807h139l-223 -1058h-165z" />
<glyph unicode="w" horiz-adv-x="804" d="M40 1058h137l58 -792l139 792h108l58 -792l140 792h137l-208 -1058h-150l-55 613l-115 -613h-150z" />
<glyph unicode="x" horiz-adv-x="480" d="M-6 0l158 535l-96 523h136l57 -390h3l108 390h128l-150 -523l93 -535h-134l-58 402h-3l-115 -402h-127z" />
<glyph unicode="y" horiz-adv-x="505" d="M41 1058h138l80 -460h5l118 460h137l-202 -668l-20 -390h-139l21 390z" />
<glyph unicode="z" horiz-adv-x="422" d="M-10 50l263 879h-195l5 129h314l27 -60l-252 -870h235l-7 -128h-381z" />
<glyph unicode="{" horiz-adv-x="328" d="M6 383l6 120q82 0 87 77l16 298q9 181 169 180h79l-6 -101h-55q-63 0 -66 -75l-18 -322q-4 -92 -96 -113q89 -29 85 -127l-23 -411q-3 -75 61 -75h55l-6 -103h-79q-160 0 -152 182l21 394q5 76 -78 76z" />
<glyph unicode="|" horiz-adv-x="273" d="M40 -118l66 1294h127l-67 -1294h-126z" />
<glyph unicode="}" horiz-adv-x="328" d="M-34 -269l6 103h52q63 0 66 75l22 411q5 98 98 127q-90 21 -86 113l18 322q3 75 -61 75h-53l6 101h78q159 0 151 -180l-17 -298q-4 -77 80 -77l-6 -120q-85 0 -88 -76l-21 -394q-9 -182 -169 -182h-76z" />
<glyph unicode="&#xa1;" horiz-adv-x="281" d="M38 0l58 773h116l-20 -773h-154zM84 879l9 179h147l-8 -179h-148z" />
<glyph unicode="&#xa2;" horiz-adv-x="502" d="M45 361l26 459q7 151 144 151h5l4 87h101l-5 -87h5q139 0 131 -151l-5 -66h-123l2 54q3 57 -56 57h-13q-59 0 -62 -57l-22 -435q-3 -58 56 -58h13q59 0 62 58l3 50h124l-4 -62q-8 -150 -147 -150h-4l-4 -89h-100l4 89h-3q-139 0 -132 150z" />
<glyph unicode="&#xa3;" horiz-adv-x="567" d="M3 516l6 113h51l13 249q9 181 176 180h134q166 0 158 -180l-5 -93h-138l4 83q3 62 -60 62h-66q-61 0 -64 -62l-13 -239h160l-7 -113h-159l-20 -388h135q55 0 58 62l4 76h139l-5 -87q-9 -179 -175 -179h-301l27 516h-52z" />
<glyph unicode="&#xa4;" horiz-adv-x="554" d="M7 426l5 87h53l3 62h-54l5 86h53l12 217q9 181 174 180h98q167 0 159 -180l-3 -58h-139l1 47q5 63 -60 63h-28q-61 0 -64 -62l-11 -207h137l-5 -86h-136l-3 -62h88l-5 -87h-88l-13 -236q-3 -62 57 -62h36q57 0 60 59l3 43h139l-3 -51q-9 -179 -177 -179h-97 q-165 0 -156 186l12 240h-53z" />
<glyph unicode="&#xa5;" horiz-adv-x="505" d="M41 1058h138l80 -460h5l118 460h137l-202 -668l-2 -16h90l-4 -72h-90l-1 -47h90l-5 -72h-90l-8 -183h-139l8 183h-90l5 72h90l2 47h-90l4 72h90l2 16z" />
<glyph unicode="&#xa6;" horiz-adv-x="303" d="M52 -269h129l29 546h-130zM93 513h129l29 545h-130z" />
<glyph unicode="&#xa7;" horiz-adv-x="495" d="M38 150l4 80h126l-5 -69q-2 -58 55 -58q56 0 59 58l6 97q1 24 -4.5 38.5t-33.5 26.5l-93 36q-20 5 -37.5 13t-32 20t-21 29t-5.5 41l4 94q5 86 48 112q-18 15 -25.5 31.5t-6.5 42.5l10 167q7 150 147 149h92q139 0 131 -149l-3 -61h-125l2 48q3 58 -51 58q-59 0 -62 -58 l-6 -105q-1 -21 6.5 -27.5t25.5 -16.5l98 -38q22 -8 40.5 -16.5t31 -18.5t18 -26.5t4.5 -42.5l-4 -96q-5 -80 -46 -112q18 -12 25.5 -28.5t5.5 -42.5l-9 -176q-7 -150 -148 -150h-89q-139 0 -132 150zM189 515q-3 -58 56 -58q56 0 59 58l1 39q3 57 -53 57q-59 0 -62 -57z " />
<glyph unicode="&#xa8;" horiz-adv-x="403" d="M53 829l7 147h117l-7 -147h-117zM255 829l8 147h116l-7 -147h-117z" />
<glyph unicode="&#xa9;" horiz-adv-x="893" d="M49 232l31 592q11 235 224 234h339q212 0 200 -234l-31 -592q-11 -232 -224 -232h-339q-212 0 -200 232zM161 235q-8 -129 105 -129h312q114 0 121 129l31 588q7 130 -106 130h-313q-112 0 -119 -130zM256 325l23 408q7 150 147 150h75q141 0 133 -150l-5 -79h-116l3 72 q3 56 -56 55q-58 0 -60 -55l-21 -394q-3 -56 54 -56q59 0 62 56l5 63h116l-4 -70q-7 -151 -148 -151h-74q-141 0 -134 151z" />
<glyph unicode="&#xaa;" horiz-adv-x="433" d="M24 339l28 555q8 164 175 164h15q166 0 158 -164l-28 -555h-111l12 223h-127l-12 -223h-110zM150 661h127l12 234q4 66 -56 66h-6q-61 0 -65 -66z" />
<glyph unicode="&#xab;" horiz-adv-x="558" d="M17 513l136 -306h121l-132 306l163 307h-121zM242 513l137 -306h121l-133 306l164 307h-121z" />
<glyph unicode="&#xac;" horiz-adv-x="601" d="M60 442l6 124h475l-13 -259h-127l7 135h-348z" />
<glyph unicode="&#xad;" horiz-adv-x="353" d="M13 414l8 118h318l-7 -118h-319z" />
<glyph unicode="&#xae;" horiz-adv-x="887" d="M49 232l31 592q11 235 224 234h333q213 0 200 -234l-31 -592q-11 -232 -224 -232h-333q-212 0 -200 232zM161 235q-8 -129 105 -129h306q114 0 121 129l31 588q8 130 -106 130h-307q-112 0 -119 -130zM252 180l37 690h237q110 0 102 -124l-9 -179q-4 -88 -69 -114 l56 -273h-109l-52 265h-55l-16 -265h-122zM394 547h59q42 0 45 53l6 109q3 52 -40 52h-59z" />
<glyph unicode="&#xaf;" horiz-adv-x="412" d="M22 888h361l5 104h-361z" />
<glyph unicode="&#xb0;" horiz-adv-x="394" d="M42 910q-2 -34 9 -62.5t30 -49.5t46.5 -33.5t59.5 -12.5q33 0 62.5 12.5t50.5 33.5t35 49.5t17 62.5q2 32 -9 61t-31 50.5t-48 34t-60 12.5q-33 0 -61.5 -12.5t-49.5 -34t-35 -50.5t-16 -61zM109 910q2 38 29 64t63 26q35 0 59 -26t23 -64q-3 -35 -30.5 -61t-62.5 -26 t-59 26t-22 61z" />
<glyph unicode="&#xb1;" horiz-adv-x="521" d="M45 196l7 125h374l-7 -125h-374zM60 601l7 124h160l8 171h128l-10 -171h149l-7 -124h-149l-9 -165h-126l8 165h-159z" />
<glyph unicode="&#xb2;" horiz-adv-x="342" d="M41 492l12 203q0 21 4.5 34t29.5 29l96 64q18 10 21.5 18t5.5 24l4 86q1 28 -25 28h-21q-27 0 -28 -28l-3 -43h-87l3 48q6 103 96 103h72q91 0 86 -103l-6 -121q-1 -20 -6.5 -31.5t-23.5 -24.5l-101 -69q-17 -10 -21 -17.5t-4 -24.5l-6 -95h144l-4 -80h-238z" />
<glyph unicode="&#xb3;" horiz-adv-x="362" d="M34 582l3 54h94l-3 -34q-1 -28 30 -28h26q30 0 31 31l6 100q1 39 -27 39l-41 2l5 70l29 1q31 0 33 34l5 100q2 27 -28 27h-16q-29 0 -31 -27l-2 -41h-95l3 40q6 109 96 108h84q90 0 84 -108l-6 -108q-3 -49 -53 -59q57 -17 56 -64l-7 -137q-6 -90 -96 -90h-96 q-90 0 -84 90z" />
<glyph unicode="&#xb4;" horiz-adv-x="218" d="M7 829l77 174h128l-106 -174h-99z" />
<glyph unicode="&#xb6;" horiz-adv-x="676" d="M69 690l9 188q11 181 170 180h388l-64 -1206h-102l58 1101h-245q-62 0 -66 -77l-9 -178q-4 -77 58 -77h55l14 247h114l-54 -1016h-113l33 649h-97q-159 0 -149 189z" />
<glyph unicode="&#xb7;" horiz-adv-x="234" d="M58 413l11 180h146l-10 -180h-147z" />
<glyph unicode="&#xb8;" horiz-adv-x="321" d="M63 -269l3 67h66q37 0 41 36v20q3 41 -34 42h-58l8 142h74l-4 -83h14q80 0 75 -86l-3 -56q-5 -80 -86 -82h-96z" />
<glyph unicode="&#xb9;" horiz-adv-x="231" d="M30 972q57 27 87 86h87l-31 -566h-95l24 431l-60 -18z" />
<glyph unicode="&#xba;" horiz-adv-x="360" d="M34 603l19 345q6 111 120 110h47q113 0 108 -110l-20 -345q-6 -111 -119 -111h-47q-114 0 -108 111zM130 613q-3 -41 28 -41h22q32 0 35 41l17 323q3 42 -30 42h-22q-31 0 -34 -42z" />
<glyph unicode="&#xbb;" horiz-adv-x="558" d="M27 207h121l169 306l-138 307h-121l135 -307zM252 207h121l170 306l-139 307h-121l136 -307z" />
<glyph unicode="&#xbc;" horiz-adv-x="735" d="M45 -44l527 1147h85l-529 -1147h-83zM65 972q59 27 85 86h88l-30 -566h-94l21 431l-57 -18zM332 186l168 357h124l-19 -356h54l-5 -81h-54l-5 -106h-92l5 106h-166zM433 187h79l20 241h-9z" />
<glyph unicode="&#xbd;" horiz-adv-x="785" d="M45 -44l529 1147h85l-531 -1147h-83zM66 972q58 27 86 86h86l-30 -566h-93l22 431l-57 -18zM460 0l10 202q2 21 6.5 34t27.5 30l96 63q20 10 22.5 18.5t3.5 24.5l5 85q2 28 -25 28h-21q-26 0 -28 -28l-3 -43h-87l3 49q6 103 96 103h74q90 0 84 -103l-6 -121 q-2 -21 -7 -32.5t-23 -23.5l-101 -69q-17 -10 -20.5 -17.5t-4.5 -25.5l-5 -94h145l-4 -80h-238z" />
<glyph unicode="&#xbe;" horiz-adv-x="825" d="M59 582l3 54h94l-1 -34q-2 -28 29 -28h27q29 0 31 31l6 100q1 39 -27 39l-41 2l4 70l30 1q32 0 34 34l4 100q1 27 -30 27h-15q-30 0 -31 -27l-2 -41h-94l1 40q6 109 96 108h84q90 0 84 -108l-4 -108q-3 -49 -54 -59q58 -17 55 -64l-7 -137q-5 -90 -95 -90h-95 q-90 0 -86 90zM135 -44l529 1147h85l-531 -1147h-83zM423 186l168 357h124l-19 -356h53l-5 -81h-52l-5 -106h-94l4 106h-165zM523 187h79l20 241h-9z" />
<glyph unicode="&#xbf;" horiz-adv-x="542" d="M38 181l12 216q2 32 7.5 49.5t17.5 29.5t29 25l101 77q20 13 25 25.5t6 42.5l6 127h138l-8 -179q-2 -32 -8.5 -50t-14.5 -28.5t-31 -25.5l-103 -76q-18 -14 -23 -27t-6 -42l-7 -148q-5 -67 42 -67h68q57 0 62 67l1 36h139l-3 -52q-8 -181 -170 -181h-129q-159 0 -151 181 zM240 879l9 179h148l-9 -179h-148z" />
<glyph unicode="&#xc0;" horiz-adv-x="550" d="M30 0l45 878q9 181 176 180h103q167 0 158 -180l-46 -878h-138l18 388h-159l-19 -388h-138zM193 1303h128l56 -174h-99zM194 516h160l19 352q3 62 -58 62h-38q-60 0 -63 -62z" />
<glyph unicode="&#xc1;" horiz-adv-x="550" d="M30 0l45 878q9 181 176 180h103q167 0 158 -180l-46 -878h-138l18 388h-159l-19 -388h-138zM188 1129l77 174h128l-106 -174h-99zM194 516h160l19 352q3 62 -58 62h-38q-60 0 -63 -62z" />
<glyph unicode="&#xc2;" horiz-adv-x="550" d="M30 0l45 878q9 181 176 180h103q167 0 158 -180l-46 -878h-138l18 388h-159l-19 -388h-138zM126 1129l133 165h85l118 -165h-107l-57 85l-64 -85h-108zM194 516h160l19 352q3 62 -58 62h-38q-60 0 -63 -62z" />
<glyph unicode="&#xc3;" horiz-adv-x="550" d="M30 0l45 878q9 181 176 180h103q167 0 158 -180l-46 -878h-138l18 388h-159l-19 -388h-138zM135 1129q3 63 34.5 94t76.5 34q14 0 24.5 -4.5t22.5 -10.5t23.5 -10.5t23.5 -4.5q15 3 25 13t13 29h75q-4 -65 -39.5 -98.5t-79.5 -34.5q-15 0 -27.5 4.5t-23.5 9.5t-20 10 t-20 5q-28 0 -38 -36h-70zM194 516h160l19 352q3 62 -58 62h-38q-60 0 -63 -62z" />
<glyph unicode="&#xc4;" horiz-adv-x="550" d="M30 0l45 878q9 181 176 180h103q167 0 158 -180l-46 -878h-138l18 388h-159l-19 -388h-138zM129 1129l7 147h117l-7 -147h-117zM194 516h160l19 352q3 62 -58 62h-38q-60 0 -63 -62zM331 1129l8 147h116l-7 -147h-117z" />
<glyph unicode="&#xc5;" horiz-adv-x="550" d="M30 0l45 878q9 181 176 180h103q167 0 158 -180l-46 -878h-138l18 388h-159l-19 -388h-138zM194 516h160l19 352q3 62 -58 62h-38q-60 0 -63 -62zM196 1204q-1 50 32.5 82.5t77.5 32.5q45 0 76 -32.5t32 -82.5q-1 -49 -32 -81t-76 -32q-43 0 -77 32t-33 81zM258 1204 q-1 -23 13 -37.5t35 -14.5q20 0 34 14.5t15 37.5q-1 22 -15 36.5t-34 14.5q-21 0 -35 -14.5t-13 -36.5z" />
<glyph unicode="&#xc6;" horiz-adv-x="735" d="M30 0l45 878q9 181 176 180h476l-6 -128h-206l-18 -321h183l-6 -128h-183l-19 -353h206l-6 -128h-344l18 388h-157l-19 -388h-140zM196 516h158l22 414h-97q-61 0 -64 -62z" />
<glyph unicode="&#xc7;" horiz-adv-x="523" d="M38 180l37 699q9 180 176 179h88q166 0 158 -179l-6 -119h-139l7 108q2 62 -59 62h-29q-54 0 -57 -62l-37 -678q-3 -62 51 -62h36q55 0 57 62l5 58h138l-4 -68q-9 -180 -176 -180h-88q-166 0 -158 180zM174 -269l3 67h66q37 0 41 36v20q3 41 -34 42h-58l8 142h74l-4 -83 h14q80 0 75 -86l-3 -56q-5 -80 -86 -82h-96z" />
<glyph unicode="&#xc8;" horiz-adv-x="443" d="M37 0l54 1058h345l-5 -128h-207l-17 -321h183l-7 -128h-182l-20 -353h207l-6 -128h-345zM129 1303h128l56 -174h-99z" />
<glyph unicode="&#xc9;" horiz-adv-x="443" d="M37 0l54 1058h345l-5 -128h-207l-17 -321h183l-7 -128h-182l-20 -353h207l-6 -128h-345zM147 1129l77 174h128l-106 -174h-99z" />
<glyph unicode="&#xca;" horiz-adv-x="443" d="M37 0l54 1058h345l-5 -128h-207l-17 -321h183l-7 -128h-182l-20 -353h207l-6 -128h-345zM84 1129l133 165h85l118 -165h-107l-57 85l-64 -85h-108z" />
<glyph unicode="&#xcb;" horiz-adv-x="443" d="M37 0l54 1058h345l-5 -128h-207l-17 -321h183l-7 -128h-182l-20 -353h207l-6 -128h-345zM95 1129l7 147h117l-7 -147h-117zM297 1129l8 147h116l-7 -147h-117z" />
<glyph unicode="&#xcc;" horiz-adv-x="267" d="M37 0l54 1058h139l-54 -1058h-139zM42 1303h128l56 -174h-99z" />
<glyph unicode="&#xcd;" horiz-adv-x="267" d="M37 0l54 1058h139l-54 -1058h-139zM47 1129l77 174h128l-106 -174h-99z" />
<glyph unicode="&#xce;" horiz-adv-x="267" d="M-5 1129l133 165h85l118 -165h-107l-57 85l-64 -85h-108zM37 0l54 1058h139l-54 -1058h-139z" />
<glyph unicode="&#xcf;" horiz-adv-x="267" d="M3 1129l7 147h117l-7 -147h-117zM37 0l54 1058h139l-54 -1058h-139zM205 1129l8 147h116l-7 -147h-117z" />
<glyph unicode="&#xd0;" horiz-adv-x="558" d="M12 448l7 118h295l-6 -118h-296zM37 0l54 1058h242q195 0 185 -203l-37 -702q-7 -153 -174 -153h-270zM181 128h105q55 0 57 48l36 678q4 76 -58 76h-97z" />
<glyph unicode="&#xd1;" horiz-adv-x="585" d="M37 0l54 1058h139l122 -511l27 511h139l-55 -1058h-138l10 211l-124 482l-35 -693h-139zM158 1129q3 63 34.5 94t76.5 34q14 0 24.5 -4.5t22.5 -10.5t23.5 -10.5t23.5 -4.5q15 3 25 13t13 29h75q-4 -65 -39.5 -98.5t-79.5 -34.5q-15 0 -27.5 4.5t-23.5 9.5t-20 10t-20 5 q-28 0 -38 -36h-70z" />
<glyph unicode="&#xd2;" d="M38 180l37 698q9 181 176 180h132q166 0 158 -180l-37 -698q-9 -180 -176 -180h-131q-167 0 -159 180zM177 190q-3 -62 59 -62h71q56 0 59 62l36 678q3 62 -59 62h-66q-60 0 -63 -62zM187 1303h128l56 -174h-99z" />
<glyph unicode="&#xd3;" d="M38 180l37 698q9 181 176 180h132q166 0 158 -180l-37 -698q-9 -180 -176 -180h-131q-167 0 -159 180zM177 190q-3 -62 59 -62h71q56 0 59 62l36 678q3 62 -59 62h-66q-60 0 -63 -62zM214 1129l77 174h128l-106 -174h-99z" />
<glyph unicode="&#xd4;" d="M38 180l37 698q9 181 176 180h132q166 0 158 -180l-37 -698q-9 -180 -176 -180h-131q-167 0 -159 180zM147 1129l133 165h85l118 -165h-107l-57 85l-64 -85h-108zM177 190q-3 -62 59 -62h71q56 0 59 62l36 678q3 62 -59 62h-66q-60 0 -63 -62z" />
<glyph unicode="&#xd5;" d="M38 180l37 698q9 181 176 180h132q166 0 158 -180l-37 -698q-9 -180 -176 -180h-131q-167 0 -159 180zM149 1129q3 63 34.5 94t76.5 34q14 0 24.5 -4.5t22.5 -10.5t23.5 -10.5t23.5 -4.5q15 3 25 13t13 29h75q-4 -65 -39.5 -98.5t-79.5 -34.5q-15 0 -27.5 4.5t-23.5 9.5 t-20 10t-20 5q-28 0 -38 -36h-70zM177 190q-3 -62 59 -62h71q56 0 59 62l36 678q3 62 -59 62h-66q-60 0 -63 -62z" />
<glyph unicode="&#xd6;" d="M38 180l37 698q9 181 176 180h132q166 0 158 -180l-37 -698q-9 -180 -176 -180h-131q-167 0 -159 180zM152 1129l7 147h117l-7 -147h-117zM177 190q-3 -62 59 -62h71q56 0 59 62l36 678q3 62 -59 62h-66q-60 0 -63 -62zM354 1129l8 147h116l-7 -147h-117z" />
<glyph unicode="&#xd7;" horiz-adv-x="545" d="M49 361l88 -94l130 137l127 -149l96 91l-139 139l141 126l-87 94l-129 -139l-124 150l-99 -91l139 -140z" />
<glyph unicode="&#xd8;" d="M38 180l37 698q9 181 176 180h129l21 89h65l-22 -96q104 -29 97 -173l-37 -698q-9 -180 -176 -180h-131h-1l-20 -89h-65l21 96q-101 31 -94 173zM179 201l170 729h-72q-60 0 -63 -62zM225 128h82q56 0 59 62l36 681z" />
<glyph unicode="&#xd9;" d="M48 202l43 856h139l-44 -861q-5 -69 56 -69h58q56 0 60 69l44 861h139l-45 -857q-10 -201 -178 -201h-116q-167 0 -156 202zM191 1303h128l56 -174h-99z" />
<glyph unicode="&#xda;" d="M48 202l43 856h139l-44 -861q-5 -69 56 -69h58q56 0 60 69l44 861h139l-45 -857q-10 -201 -178 -201h-116q-167 0 -156 202zM201 1129l77 174h128l-106 -174h-99z" />
<glyph unicode="&#xdb;" d="M48 202l43 856h139l-44 -861q-5 -69 56 -69h58q56 0 60 69l44 861h139l-45 -857q-10 -201 -178 -201h-116q-167 0 -156 202zM147 1129l133 165h85l118 -165h-107l-57 85l-64 -85h-108z" />
<glyph unicode="&#xdc;" d="M48 202l43 856h139l-44 -861q-5 -69 56 -69h58q56 0 60 69l44 861h139l-45 -857q-10 -201 -178 -201h-116q-167 0 -156 202zM156 1129l7 147h117l-7 -147h-117zM358 1129l8 147h116l-7 -147h-117z" />
<glyph unicode="&#xdd;" horiz-adv-x="505" d="M41 1058h138l80 -460h5l118 460h137l-202 -668l-20 -390h-139l21 390zM165 1129l77 174h128l-106 -174h-99z" />
<glyph unicode="&#xde;" horiz-adv-x="543" d="M37 0l54 1058h137l-8 -176h134q165 0 156 -181l-10 -191q-10 -178 -179 -178h-129l-16 -332h-139zM199 460h105q55 0 57 62l9 170q3 62 -59 62h-97z" />
<glyph unicode="&#xdf;" horiz-adv-x="624" d="M37 0l46 882q8 177 168 176h125q166 0 158 -179l-9 -165q-7 -144 -107 -151l-2 -7q152 -4 144 -161l-13 -245q-7 -150 -165 -150h-152l6 128h115q54 0 57 62l12 210q3 57 -46 57h-91l11 205h49q40 0 44 41l7 162q4 65 -55 65h-57q-57 0 -61 -65l-44 -865h-140z" />
<glyph unicode="&#xe0;" horiz-adv-x="550" d="M30 0l45 878q9 181 176 180h103q167 0 158 -180l-46 -878h-138l18 388h-159l-19 -388h-138zM180 1313h128l56 -174h-99zM194 516h160l19 352q3 62 -58 62h-38q-60 0 -63 -62z" />
<glyph unicode="&#xe1;" horiz-adv-x="550" d="M30 0l45 878q9 181 176 180h103q167 0 158 -180l-46 -878h-138l18 388h-159l-19 -388h-138zM194 516h160l19 352q3 62 -58 62h-38q-60 0 -63 -62zM196 1139l77 174h128l-106 -174h-99z" />
<glyph unicode="&#xe2;" horiz-adv-x="550" d="M30 0l45 878q9 181 176 180h103q167 0 158 -180l-46 -878h-138l18 388h-159l-19 -388h-138zM30 0l45 878q9 181 176 180h103q167 0 158 -180l-46 -878h-138l18 388h-159l-19 -388h-138zM136 1139l133 165h85l118 -165h-107l-57 85l-64 -85h-108zM194 516h160l19 352 q3 62 -58 62h-38q-60 0 -63 -62zM194 516h160l19 352q3 62 -58 62h-38q-60 0 -63 -62z" />
<glyph unicode="&#xe3;" horiz-adv-x="550" d="M30 0l45 878q9 181 176 180h103q167 0 158 -180l-46 -878h-138l18 388h-159l-19 -388h-138zM142 1124q3 63 34.5 94t76.5 34q14 0 24.5 -4.5t22.5 -10.5t23.5 -10.5t23.5 -4.5q15 3 25 13t13 29h75q-4 -65 -39.5 -98.5t-79.5 -34.5q-15 0 -27.5 4.5t-23.5 9.5t-20 10 t-20 5q-28 0 -38 -36h-70zM194 516h160l19 352q3 62 -58 62h-38q-60 0 -63 -62z" />
<glyph unicode="&#xe4;" horiz-adv-x="550" d="M30 0l45 878q9 181 176 180h103q167 0 158 -180l-46 -878h-138l18 388h-159l-19 -388h-138zM137 1124l7 147h117l-7 -147h-117zM194 516h160l19 352q3 62 -58 62h-38q-60 0 -63 -62zM339 1124l8 147h116l-7 -147h-117z" />
<glyph unicode="&#xe5;" horiz-adv-x="550" d="M30 0l45 878q9 181 176 180h103q167 0 158 -180l-46 -878h-138l18 388h-159l-19 -388h-138zM194 516h160l19 352q3 62 -58 62h-38q-60 0 -63 -62zM204 1199q-1 50 32.5 82.5t77.5 32.5q45 0 76 -32.5t32 -82.5q-1 -49 -32 -81t-76 -32q-43 0 -77 32t-33 81zM266 1199 q-1 -23 13 -37.5t35 -14.5q20 0 34 14.5t15 37.5q-1 22 -15 36.5t-34 14.5q-21 0 -35 -14.5t-13 -36.5z" />
<glyph unicode="&#xe6;" horiz-adv-x="735" d="M30 0l45 878q9 181 176 180h476l-6 -128h-206l-18 -321h183l-6 -128h-183l-19 -353h206l-6 -128h-344l18 388h-157l-19 -388h-140zM196 516h158l22 414h-97q-61 0 -64 -62z" />
<glyph unicode="&#xe7;" horiz-adv-x="523" d="M38 180l37 699q9 180 176 179h88q166 0 158 -179l-6 -119h-139l7 108q2 62 -59 62h-29q-54 0 -57 -62l-37 -678q-3 -62 51 -62h36q55 0 57 62l5 58h138l-4 -68q-9 -180 -176 -180h-88q-166 0 -158 180zM167 -269l3 67h66q37 0 41 36v20q3 41 -34 42h-58l8 142h74l-4 -83 h14q80 0 75 -86l-3 -56q-5 -80 -86 -82h-96z" />
<glyph unicode="&#xe8;" horiz-adv-x="443" d="M37 0l54 1058h345l-5 -128h-207l-17 -321h183l-7 -128h-182l-20 -353h207l-6 -128h-345zM139 1283h128l56 -174h-99z" />
<glyph unicode="&#xe9;" horiz-adv-x="443" d="M37 0l54 1058h345l-5 -128h-207l-17 -321h183l-7 -128h-182l-20 -353h207l-6 -128h-345zM166 1139l77 174h128l-106 -174h-99z" />
<glyph unicode="&#xea;" horiz-adv-x="443" d="M37 0l54 1058h345l-5 -128h-207l-17 -321h183l-7 -128h-182l-20 -353h207l-6 -128h-345zM92 1124l133 165h85l118 -165h-107l-57 85l-64 -85h-108z" />
<glyph unicode="&#xeb;" horiz-adv-x="443" d="M37 0l54 1058h345l-5 -128h-207l-17 -321h183l-7 -128h-182l-20 -353h207l-6 -128h-345zM106 1126l7 147h117l-7 -147h-117zM308 1126l8 147h116l-7 -147h-117z" />
<glyph unicode="&#xec;" horiz-adv-x="267" d="M37 0l54 1058h139l-54 -1058h-139zM47 1298h128l56 -174h-99z" />
<glyph unicode="&#xed;" horiz-adv-x="267" d="M37 0l54 1058h139l-54 -1058h-139zM51 1127l77 174h128l-106 -174h-99z" />
<glyph unicode="&#xee;" horiz-adv-x="267" d="M-13 1129l133 165h85l118 -165h-107l-57 85l-64 -85h-108zM37 0l54 1058h139l-54 -1058h-139z" />
<glyph unicode="&#xef;" horiz-adv-x="267" d="M-2 1124l7 147h117l-7 -147h-117zM37 0l54 1058h139l-54 -1058h-139zM200 1124l8 147h116l-7 -147h-117z" />
<glyph unicode="&#xf0;" horiz-adv-x="558" d="M15 449l7 118h286l-6 -118h-287zM37 0l54 1058h242q195 0 185 -203l-37 -702q-7 -153 -174 -153h-270zM181 128h105q55 0 57 48l36 678q4 76 -58 76h-97z" />
<glyph unicode="&#xf1;" horiz-adv-x="555" d="M37 0l54 1058h139l122 -511l27 511h139l-55 -1058h-138l10 211l-124 482l-35 -693h-139zM145 1124q3 63 34.5 94t76.5 34q14 0 24.5 -4.5t22.5 -10.5t23.5 -10.5t23.5 -4.5q15 3 25 13t13 29h75q-4 -65 -39.5 -98.5t-79.5 -34.5q-15 0 -27.5 4.5t-23.5 9.5t-20 10t-20 5 q-28 0 -38 -36h-70z" />
<glyph unicode="&#xf2;" d="M38 180l37 698q9 181 176 180h132q166 0 158 -180l-37 -698q-9 -180 -176 -180h-131q-167 0 -159 180zM177 190q-3 -62 59 -62h71q56 0 59 62l36 678q3 62 -59 62h-66q-60 0 -63 -62zM183 1298h128l56 -174h-99z" />
<glyph unicode="&#xf3;" d="M38 180l37 698q9 181 176 180h132q166 0 158 -180l-37 -698q-9 -180 -176 -180h-131q-167 0 -159 180zM177 190q-3 -62 59 -62h71q56 0 59 62l36 678q3 62 -59 62h-66q-60 0 -63 -62zM214 1124l77 174h128l-106 -174h-99z" />
<glyph unicode="&#xf4;" d="M38 180l37 698q9 181 176 180h132q166 0 158 -180l-37 -698q-9 -180 -176 -180h-131q-167 0 -159 180zM143 1124l133 165h85l118 -165h-107l-57 85l-64 -85h-108zM177 190q-3 -62 59 -62h71q56 0 59 62l36 678q3 62 -59 62h-66q-60 0 -63 -62z" />
<glyph unicode="&#xf5;" d="M38 180l37 698q9 181 176 180h132q166 0 158 -180l-37 -698q-9 -180 -176 -180h-131q-167 0 -159 180zM149 1124q3 63 34.5 94t76.5 34q14 0 24.5 -4.5t22.5 -10.5t23.5 -10.5t23.5 -4.5q15 3 25 13t13 29h75q-4 -65 -39.5 -98.5t-79.5 -34.5q-15 0 -27.5 4.5t-23.5 9.5 t-20 10t-20 5q-28 0 -38 -36h-70zM177 190q-3 -62 59 -62h71q56 0 59 62l36 678q3 62 -59 62h-66q-60 0 -63 -62z" />
<glyph unicode="&#xf6;" d="M38 180l37 698q9 181 176 180h132q166 0 158 -180l-37 -698q-9 -180 -176 -180h-131q-167 0 -159 180zM155 1124l7 147h117l-7 -147h-117zM177 190q-3 -62 59 -62h71q56 0 59 62l36 678q3 62 -59 62h-66q-60 0 -63 -62zM357 1124l8 147h116l-7 -147h-117z" />
<glyph unicode="&#xf7;" horiz-adv-x="636" d="M32 442l8 128h563l-8 -128h-563zM225 166l11 182h147l-10 -182h-148zM252 672l11 182h147l-10 -182h-148z" />
<glyph unicode="&#xf8;" d="M38 180l37 698q9 181 176 180h129l21 89h65l-22 -96q104 -29 97 -173l-37 -698q-9 -180 -176 -180h-131h-1l-20 -89h-65l21 96q-101 31 -94 173zM179 201l170 729h-72q-60 0 -63 -62zM225 128h82q56 0 59 62l36 681z" />
<glyph unicode="&#xf9;" d="M48 202l43 856h139l-44 -861q-5 -69 56 -69h58q56 0 60 69l44 861h139l-45 -857q-10 -201 -178 -201h-116q-167 0 -156 202zM160 1283h128l56 -174h-99z" />
<glyph unicode="&#xfa;" d="M48 202l43 856h139l-44 -861q-5 -69 56 -69h58q56 0 60 69l44 861h139l-45 -857q-10 -201 -178 -201h-116q-167 0 -156 202zM219 1109l77 174h128l-106 -174h-99z" />
<glyph unicode="&#xfb;" d="M48 202l43 856h139l-44 -861q-5 -69 56 -69h58q56 0 60 69l44 861h139l-45 -857q-10 -201 -178 -201h-116q-167 0 -156 202zM142 1124l133 165h85l118 -165h-107l-57 85l-64 -85h-108z" />
<glyph unicode="&#xfc;" d="M48 202l43 856h139l-44 -861q-5 -69 56 -69h58q56 0 60 69l44 861h139l-45 -857q-10 -201 -178 -201h-116q-167 0 -156 202zM155 1124l7 147h117l-7 -147h-117zM357 1124l8 147h116l-7 -147h-117z" />
<glyph unicode="&#xfd;" horiz-adv-x="505" d="M41 1058h138l80 -460h5l118 460h137l-202 -668l-20 -390h-139l21 390zM168 1109l77 174h128l-106 -174h-99z" />
<glyph unicode="&#xfe;" horiz-adv-x="543" d="M37 0l54 1058h137l-8 -176h134q165 0 156 -181l-10 -191q-10 -178 -179 -178h-129l-16 -332h-139zM199 460h105q55 0 57 62l9 170q3 62 -59 62h-97z" />
<glyph unicode="&#xff;" horiz-adv-x="505" d="M41 1058h138l80 -460h5l118 460h137l-202 -668l-20 -390h-139l21 390zM118 1124l7 147h117l-7 -147h-117zM320 1124l8 147h116l-7 -147h-117z" />
<glyph unicode="&#x152;" horiz-adv-x="772" d="M38 181l37 697q9 181 174 180h171l57 -44l1 44h292l-6 -129h-205l-18 -320h183l-6 -128h-183l-19 -353h205l-6 -128h-292l2 44l-59 -44h-172q-164 0 -156 181zM177 190q-3 -62 59 -62h89q54 0 58 64l35 675q4 63 -58 63h-83q-60 0 -63 -62z" />
<glyph unicode="&#x153;" horiz-adv-x="772" d="M38 181l37 697q9 181 174 180h171l57 -44l1 44h292l-6 -129h-205l-18 -320h183l-6 -128h-183l-19 -353h205l-6 -128h-292l2 44l-59 -44h-172q-164 0 -156 181zM177 190q-3 -62 59 -62h89q54 0 58 64l35 675q4 63 -58 63h-83q-60 0 -63 -62z" />
<glyph unicode="&#x178;" horiz-adv-x="505" d="M41 1058h138l80 -460h5l118 460h137l-202 -668l-20 -390h-139l21 390zM101 1129l7 147h117l-7 -147h-117zM303 1129l8 147h116l-7 -147h-117z" />
<glyph unicode="&#x2c6;" horiz-adv-x="462" d="M71 829l133 165h85l118 -165h-107l-57 85l-64 -85h-108z" />
<glyph unicode="&#x2dc;" horiz-adv-x="424" d="M62 829q3 63 34.5 94t76.5 34q14 0 24.5 -4.5t22.5 -10.5t23.5 -10.5t23.5 -4.5q15 3 25 13t13 29h75q-4 -65 -39.5 -98.5t-79.5 -34.5q-15 0 -27.5 4.5t-23.5 9.5t-20 10t-20 5q-28 0 -38 -36h-70z" />
<glyph unicode="&#x2000;" horiz-adv-x="682" />
<glyph unicode="&#x2001;" horiz-adv-x="1365" />
<glyph unicode="&#x2002;" horiz-adv-x="682" />
<glyph unicode="&#x2003;" horiz-adv-x="1365" />
<glyph unicode="&#x2004;" horiz-adv-x="455" />
<glyph unicode="&#x2005;" horiz-adv-x="341" />
<glyph unicode="&#x2006;" horiz-adv-x="227" />
<glyph unicode="&#x2007;" horiz-adv-x="227" />
<glyph unicode="&#x2008;" horiz-adv-x="170" />
<glyph unicode="&#x2009;" horiz-adv-x="273" />
<glyph unicode="&#x200a;" horiz-adv-x="75" />
<glyph unicode="&#x2010;" horiz-adv-x="353" d="M13 414l8 118h318l-7 -118h-319z" />
<glyph unicode="&#x2011;" horiz-adv-x="353" d="M13 414l8 118h318l-7 -118h-319z" />
<glyph unicode="&#x2012;" horiz-adv-x="353" d="M13 414l8 118h318l-7 -118h-319z" />
<glyph unicode="&#x2013;" horiz-adv-x="412" d="M-1 428l2 104h413l-4 -104h-411z" />
<glyph unicode="&#x2014;" horiz-adv-x="678" d="M-1 428l2 104h679l-5 -104h-676z" />
<glyph unicode="&#x2018;" horiz-adv-x="231" d="M35 730l7 140l79 191h84l-75 -191h67l-10 -199h-97q-58 0 -55 59z" />
<glyph unicode="&#x2019;" horiz-adv-x="218" d="M12 671l75 190h-68l11 200h97q57 0 54 -59l-7 -141l-78 -190h-84z" />
<glyph unicode="&#x201a;" horiz-adv-x="232" d="M-32 -218l75 190h-68l11 200h97q57 0 54 -59l-7 -141l-78 -190h-84z" />
<glyph unicode="&#x201c;" horiz-adv-x="461" d="M37 730l7 140l78 191h85l-77 -191h67l-10 -199h-96q-57 0 -54 59zM264 730l7 140l80 191h82l-74 -191h67l-10 -199h-96q-59 0 -56 59z" />
<glyph unicode="&#x201d;" horiz-adv-x="461" d="M27 671l75 190h-68l10 200h96q59 0 56 -59l-7 -141l-80 -190h-82zM255 671l77 190h-69l10 200h97q58 0 55 -59l-7 -141l-79 -190h-84z" />
<glyph unicode="&#x201e;" horiz-adv-x="461" d="M-17 -218l75 190h-68l10 200h96q59 0 56 -59l-7 -141l-80 -190h-82zM211 -218l77 190h-69l10 200h97q58 0 55 -59l-7 -141l-79 -190h-84z" />
<glyph unicode="&#x2022;" horiz-adv-x="277" d="M-6 429l12 269h191l-13 -269h-190z" />
<glyph unicode="&#x2026;" horiz-adv-x="702" d="M37 0l11 180h146l-10 -180h-147zM272 0l11 180h146l-10 -180h-147zM506 0l11 180h146l-10 -180h-147z" />
<glyph unicode="&#x202f;" horiz-adv-x="273" />
<glyph unicode="&#x2039;" horiz-adv-x="332" d="M18 513l137 -306h119l-132 306l163 307h-119z" />
<glyph unicode="&#x203a;" horiz-adv-x="334" d="M28 207h120l169 306l-138 307h-120l135 -307z" />
<glyph unicode="&#x205f;" horiz-adv-x="341" />
<glyph unicode="&#x20ac;" horiz-adv-x="554" d="M7 426l5 87h53l3 62h-54l5 86h53l12 217q9 181 174 180h98q167 0 159 -180l-3 -58h-139l1 47q5 63 -60 63h-28q-61 0 -64 -62l-11 -207h137l-5 -86h-136l-3 -62h88l-5 -87h-88l-13 -236q-3 -62 57 -62h36q57 0 60 59l3 43h139l-3 -51q-9 -179 -177 -179h-97 q-165 0 -156 186l12 240h-53z" />
<glyph unicode="&#x2122;" horiz-adv-x="696" d="M40 984h81l-28 -542h80l28 542h82l3 74h-244zM310 442l31 616h90l56 -360l93 360h90l-31 -616h-82l30 405l-77 -293h-61l-47 293l-11 -405h-81z" />
<glyph unicode="&#x25fc;" horiz-adv-x="1061" d="M0 0v1062h1062v-1062h-1062z" />
<glyph unicode="&#xfb01;" horiz-adv-x="684" d="M37 0l54 1058h417h138l-55 -1058h-138l48 930h-277l-17 -321h181l-6 -128h-181l-25 -481h-139z" />
<glyph unicode="&#xfb02;" horiz-adv-x="825" d="M37 0l54 1058h417h138l-49 -930h192l-6 -128h-330l48 930h-277l-17 -321h183l-7 -128h-182l-25 -481h-139z" />
</font>
</defs>
</svg>
