<?xml version="1.0" standalone="no"?>
<!DOCTYPE svg PUBLIC "-//W3C//DTD SVG 20010904//EN"
 "http://www.w3.org/TR/2001/REC-SVG-20010904/DTD/svg10.dtd">
<svg version="1.0" xmlns="http://www.w3.org/2000/svg"
 width="100.000000pt" height="100.000000pt" viewBox="0 0 100.000000 100.000000"
 preserveAspectRatio="xMidYMid meet">
<metadata>
Created by potrace 1.11, written by Peter Selinger 2001-2013
</metadata>
<g transform="translate(0.000000,100.000000) scale(0.100000,-0.100000)"
fill="#000000" stroke="none">
<path d="M328 910 c-82 -26 -133 -56 -185 -108 -116 -117 -156 -284 -105 -436
l19 -57 -28 -15 c-16 -8 -27 -20 -24 -27 36 -115 59 -183 64 -189 3 -3 33 9
66 29 55 33 62 34 90 23 109 -46 159 -58 229 -55 40 1 91 8 112 15 163 52 284
198 300 365 7 71 6 69 73 106 34 19 60 37 59 41 -7 18 -132 158 -142 158 -6 0
-19 -7 -30 -15 -17 -13 -23 -9 -72 45 -51 54 -128 102 -204 125 -48 15 -167
12 -222 -5z m203 -76 c56 -28 100 -66 126 -107 99 -157 43 -356 -125 -438 -71
-35 -178 -33 -255 4 -109 54 -173 166 -164 287 8 125 82 220 206 267 47 18
167 11 212 -13z"/>
</g>
</svg>
